#!OML:ASF F:\VICON\USERDATA\INSTALL\Justin_Nancy\Justin_Nancy.ASF
:FULLY-SPECIFIED
:DEGREES
34
root -8.52904 18.2524 -13.345 3.3016 16.1985 -13.909
lowerback 6.2471 3.20384 6.25766
upperback -0.822343 4.99862 4.88881
thorax -4.27464 2.40022 1.09684
lowerneck -20.7814 -5.1334 -8.14988
upperneck 15.5163 -6.00139 7.0156
head 8.72259 -2.57554 2.8991
rclavicle 6.66923e-014 -1.0635e-014
rhumerus -43.9977 19.7466 -88.6425
rradius 117.473
rwrist -18.5669
rhand -4.22206 25.5242
rfingers 7.12502
rthumb 21.5407 -3.29788
lclavicle 6.66923e-014 -1.0635e-014
lhumerus -59.6423 -6.18916 91.2601
lradius 105.942
lwrist 28.7015
lhand -13.1748 8.41744
lfingers 7.12502
lthumb 12.9247 37.9972
rfemur 15.1689 2.6255 29.7126
rtibia 30.9045
rfoot 19.5615 -9.57154
rtoes 1.09315
lfemur -33.1473 7.21093 -24.4698
ltibia 28.2547
lfoot 0.259731 3.35949
ltoes 3.0253
35
root -8.46338 18.2207 -12.9341 3.34679 16.6735 -13.9775
lowerback 5.80062 3.11141 5.76292
upperback -0.704528 4.78988 4.95179
thorax -3.94783 2.31969 1.48168
lowerneck -20.6493 -5.04858 -8.27609
upperneck 15.199 -5.87538 7.18365
head 8.59113 -2.5101 2.9953
rclavicle -1.11941e-014 -7.00716e-014
rhumerus -44.0248 19.9085 -88.5123
rradius 116.866
rwrist -18.3372
rhand -4.40925 25.7306
rfingers 7.12502
rthumb 21.3609 -3.11196
lclavicle -1.11941e-014 -7.00716e-014
lhumerus -58.8408 -5.83965 90.7256
lradius 105.942
lwrist 29.0049
lhand -13.2897 8.56998
lfingers 7.12502
lthumb 12.8139 38.1567
rfemur 14.3477 2.691 29.7423
rtibia 33.8431
rfoot 19.0869 -10.362
rtoes 4.13733
lfemur -32.8862 8.10295 -25.3195
ltibia 26.4599
lfoot 0.42354 3.86252
ltoes 3.89841
36
root -8.39286 18.1694 -12.5266 3.53741 16.9984 -13.9873
lowerback 5.28662 3.06002 5.33982
upperback -0.591989 4.63496 4.91374
thorax -3.57091 2.26106 1.72034
lowerneck -20.6224 -4.90331 -8.20858
upperneck 14.7761 -5.68754 7.24273
head 8.42733 -2.41348 3.02903
rclavicle -3.45388e-015 -2.18663e-015
rhumerus -43.9142 20.0149 -88.3539
rradius 116.146
rwrist -18.013
rhand -4.74406 25.7119
rfingers 7.12502
rthumb 21.0393 -3.16681
lclavicle -3.45388e-015 -2.18663e-015
lhumerus -57.8762 -5.5224 90.1019
lradius 105.962
lwrist 29.4246
lhand -13.8349 8.8926
lfingers 7.12502
lthumb 12.2883 38.5115
rfemur 13.153 2.68567 29.5197
rtibia 37.1337
rfoot 18.2228 -10.8045
rtoes 5.35174
lfemur -32.8177 9.17814 -26.311
ltibia 25.1094
lfoot 0.941971 3.69537
ltoes 2.15236
37
root -8.33912 18.0871 -12.1181 3.33129 17.4673 -13.9491
lowerback 5.42815 2.91131 4.79111
upperback -0.61827 4.41155 4.82592
thorax -3.71198 2.15763 1.94069
lowerneck -20.4465 -4.76322 -8.01983
upperneck 14.6342 -5.55971 7.25323
head 8.33357 -2.34537 3.0209
rclavicle -6.78042e-015 1.03492e-014
rhumerus -44.3273 19.8451 -88.4532
rradius 115.466
rwrist -18.159
rhand -4.36085 25.5427
rfingers 7.12502
rthumb 21.4074 -3.29468
lclavicle -6.78042e-015 1.03492e-014
lhumerus -57.3382 -5.40522 89.421
lradius 106.097
lwrist 29.9935
lhand -14.1402 9.17186
lfingers 7.12502
lthumb 11.9939 38.8082
rfemur 12.2576 2.31431 29.3168
rtibia 40.5696
rfoot 17.3521 -10.9467
rtoes 4.26036
lfemur -32.2487 9.98086 -27.098
ltibia 24.1109
lfoot 1.91878 3.09154
ltoes 1.03216
38
root -8.29158 17.9888 -11.736 3.22496 17.568 -14.2529
lowerback 5.85661 2.88387 4.61944
upperback -0.906753 4.41541 4.73368
thorax -4.26008 2.15107 1.90929
lowerneck -20.0132 -4.64606 -7.76772
upperneck 14.7049 -5.52005 7.30644
head 8.27461 -2.31539 3.00852
rclavicle -3.40916e-014 1.35174e-014
rhumerus -44.8294 19.5545 -88.6134
rradius 114.583
rwrist -18.2785
rhand -3.97175 25.4235
rfingers 7.12502
rthumb 21.7811 -3.37094
lclavicle -3.40916e-014 1.35174e-014
lhumerus -56.7282 -5.28455 88.7112
lradius 105.87
lwrist 30.7158
lhand -13.9482 9.09956
lfingers 7.12502
lthumb 12.1791 38.725
rfemur 10.8463 2.1486 29.2848
rtibia 44.0668
rfoot 16.9985 -10.5635
rtoes 2.46634
lfemur -32.062 10.3801 -27.3217
ltibia 23.7221
lfoot 2.90572 3.03739
ltoes -1.60455
39
root -8.23638 17.8934 -11.3499 2.87983 18.2109 -14.3236
lowerback 6.27447 2.63414 4.25593
upperback -1.02257 4.08982 4.62181
thorax -4.63236 1.99023 2.00163
lowerneck -19.4089 -4.48513 -7.42379
upperneck 14.4822 -5.4531 7.43305
head 8.08539 -2.26507 3.0093
rclavicle 7.71285e-014 -3.33958e-014
rhumerus -45.0891 19.4635 -88.6636
rradius 113.432
rwrist -18.1871
rhand -5.19923 25.3407
rfingers 7.12502
rthumb 20.602 -3.58605
lclavicle 7.71285e-014 -3.33958e-014
lhumerus -55.8929 -5.12413 87.9932
lradius 105.695
lwrist 31.7119
lhand -13.686 9.13587
lfingers 7.12502
lthumb 12.4318 38.7462
rfemur 9.79026 1.53844 28.9938
rtibia 47.4241
rfoot 16.4656 -9.97804
rtoes 2.68458
lfemur -31.675 10.6955 -27.7529
ltibia 24.3075
lfoot 3.47659 2.53898
ltoes 1.44259
40
root -8.18303 17.786 -10.9546 2.43892 19.1184 -14.3332
lowerback 6.50789 2.30359 3.76171
upperback -0.898051 3.61689 4.60548
thorax -4.65869 1.7687 2.29921
lowerneck -19.2353 -4.35421 -7.42378
upperneck 14.3743 -5.32655 7.67644
head 8.01727 -2.18524 3.10972
rclavicle -3.62782e-015 -3.45885e-014
rhumerus -45.2832 19.4021 -88.4343
rradius 112.634
rwrist -18.7121
rhand -6.08806 25.0918
rfingers 7.12502
rthumb 19.7477 -3.92506
lclavicle -3.62782e-015 -3.45885e-014
lhumerus -54.6545 -5.00551 87.5849
lradius 105.574
lwrist 32.6637
lhand -13.8017 9.27642
lfingers 7.12502
lthumb 12.3203 38.8934
rfemur 8.9178 0.491122 28.5946
rtibia 50.6858
rfoot 15.4512 -9.071
rtoes 3.98867
lfemur -31.3733 11.3749 -28.2913
ltibia 25.9239
lfoot 3.32619 1.40622
ltoes 14.0407
41
root -8.14593 17.6574 -10.5611 1.69154 19.917 -14.5797
lowerback 7.08899 2.04038 3.32458
upperback -0.742196 3.26196 4.66734
thorax -4.84631 1.60359 2.6267
lowerneck -19.4017 -4.18114 -7.31158
upperneck 14.6501 -5.15874 7.84718
head 8.12679 -2.07659 3.17273
rclavicle 8.59744e-015 -8.74653e-015
rhumerus -45.5695 19.1069 -88.0481
rradius 112.053
rwrist -19.8272
rhand -5.66203 24.9783
rfingers 7.12502
rthumb 20.1572 -3.99591
lclavicle 8.59744e-015 -8.74653e-015
lhumerus -53.3466 -5.06433 87.2948
lradius 105.542
lwrist 33.7382
lhand -13.9313 9.77895
lfingers 7.12502
lthumb 12.1954 39.4034
rfemur 8.34611 -0.710778 28.4177
rtibia 53.8184
rfoot 14.2603 -8.18726
rtoes 4.09114
lfemur -30.8384 11.967 -28.3148
ltibia 28.3042
lfoot 1.2975 1.54759
ltoes 23.7432
42
root -8.11683 17.5207 -10.1694 0.743918 20.6295 -14.956
lowerback 7.84123 1.76409 2.8132
upperback -0.515201 2.88972 4.82698
thorax -5.05853 1.43409 3.10393
lowerneck -19.7331 -3.80148 -6.89
upperneck 15.161 -4.76917 7.861
head 8.31366 -1.85483 3.16344
rclavicle -6.2319e-014 -4.09496e-014
rhumerus -45.6989 19.0014 -87.6297
rradius 111.286
rwrist -21.1845
rhand -5.11006 24.4771
rfingers 7.12502
rthumb 20.6877 -4.44032
lclavicle -6.2319e-014 -4.09496e-014
lhumerus -51.9633 -4.97939 86.9899
lradius 105.576
lwrist 34.8534
lhand -13.7462 10.2677
lfingers 7.12502
lthumb 12.3739 39.8815
rfemur 7.814 -1.94445 28.3106
rtibia 56.9557
rfoot 13.1878 -7.81976
rtoes 2.02821
lfemur -29.8379 12.1272 -27.8831
ltibia 30.9915
lfoot -2.41588 3.06967
ltoes 25.1066
43
root -8.07476 17.3987 -9.77242 -0.0305735 21.5565 -15.2716
lowerback 8.40392 1.45864 2.33061
upperback -0.188733 2.46033 5.01721
thorax -5.04737 1.23711 3.61887
lowerneck -20.9399 -4.97692 -9.22233
upperneck 15.4437 -5.96964 9.51978
head 8.8483 -2.35669 3.94886
rclavicle 2.09718e-014 4.21423e-014
rhumerus -45.3566 19.0566 -86.926
rradius 110.316
rwrist -22.8996
rhand -5.32914 23.6226
rfingers 7.12502
rthumb 20.4771 -5.3176
lclavicle 2.09718e-014 4.21423e-014
lhumerus -50.0644 -4.83405 86.9162
lradius 105.423
lwrist 35.5536
lhand -13.9141 10.1981
lfingers 7.12502
lthumb 12.212 39.8216
rfemur 6.73884 -3.2416 28.075
rtibia 60.2068
rfoot 12.5131 -8.0311
rtoes 1.70283
lfemur -28.7819 11.8316 -27.4144
ltibia 33.5545
lfoot -6.25907 3.98836
ltoes 23.7911
44
root -8.01593 17.2932 -9.38162 -0.521347 22.594 -15.1726
lowerback 8.83464 1.15734 1.61287
upperback 0.242752 1.98666 5.05933
thorax -4.83993 1.01886 4.12491
lowerneck -21.883 -5.48814 -9.83137
upperneck 15.5063 -6.52739 10.0836
head 9.13545 -2.56836 4.15825
rclavicle 1.35174e-014 -4.49253e-014
rhumerus -44.357 19.1529 -85.9293
rradius 109.111
rwrist -25.1425
rhand -5.56473 22.9405
rfingers 7.12502
rthumb 20.2507 -6.02384
lclavicle 1.35174e-014 -4.49253e-014
lhumerus -47.4708 -4.66535 87.0156
lradius 104.999
lwrist 36.1622
lhand -14.1277 10.7341
lfingers 7.12502
lthumb 12.006 40.3697
rfemur 5.22632 -4.56467 27.2402
rtibia 63.6272
rfoot 12.1895 -8.26294
rtoes 3.30191
lfemur -27.7344 11.1051 -27.2118
ltibia 35.6129
lfoot -9.75802 4.62655
ltoes 23.0916
45
root -7.95314 17.1815 -9.00351 -0.908752 23.6794 -14.8829
lowerback 9.29225 0.820286 0.7681
upperback 0.523772 1.4522 5.02097
thorax -4.78866 0.770043 4.63204
lowerneck -21.8958 -5.15716 -9.18791
upperneck 15.1618 -6.17127 9.73211
head 8.94569 -2.40244 3.97719
rclavicle -2.84262e-014 2.26615e-014
rhumerus -43.688 19.3309 -85.1578
rradius 107.907
rwrist -27.1027
rhand -5.67138 22.6818
rfingers 7.12502
rthumb 20.1482 -6.29337
lclavicle -2.84262e-014 2.26615e-014
lhumerus -45.0444 -4.59556 87.1663
lradius 104.53
lwrist 36.7451
lhand -13.9132 11.0205
lfingers 7.12502
lthumb 12.2128 40.644
rfemur 3.72357 -6.06262 26.0603
rtibia 67.0866
rfoot 11.5583 -8.25595
rtoes 5.89007
lfemur -26.5086 9.94569 -26.9973
ltibia 37.1193
lfoot -12.8842 5.84696
ltoes 24.6994
46
root -7.89169 17.0626 -8.63457 -0.861328 24.229 -14.0895
lowerback 9.63464 0.657792 -0.512369
upperback 0.643523 1.08971 4.81395
thorax -4.84638 0.614051 5.19316
lowerneck -21.5099 -5.01336 -8.99477
upperneck 14.7463 -6.06742 9.88947
head 8.7268 -2.33928 4.01285
rclavicle -1.39149e-014 6.75868e-015
rhumerus -43.4392 19.5007 -84.6426
rradius 106.975
rwrist -28.832
rhand -6.16639 22.4374
rfingers 7.12502
rthumb 19.6724 -6.5872
lclavicle -1.39149e-014 6.75868e-015
lhumerus -42.9817 -4.63261 87.217
lradius 104.34
lwrist 37.5691
lhand -13.6529 11.7995
lfingers 7.12502
lthumb 12.4638 41.4079
rfemur 1.779 -7.21059 24.2914
rtibia 70.7507
rfoot 10.9652 -7.70999
rtoes 5.07014
lfemur -25.2636 9.13238 -27.2764
ltibia 38.1154
lfoot -15.3703 6.59753
ltoes 25.4657
47
root -7.83043 16.9451 -8.28177 -0.669271 24.8745 -12.9524
lowerback 10.1104 0.465105 -1.99929
upperback 0.717921 0.646881 4.44555
thorax -5.00402 0.422898 5.71937
lowerneck -21.217 -4.93003 -8.8895
upperneck 14.6436 -6.09331 10.3402
head 8.65914 -2.30697 4.14989
rclavicle -2.51463e-014 4.37326e-015
rhumerus -43.2293 19.541 -84.2901
rradius 106.15
rwrist -30.5898
rhand -6.67363 21.9904
rfingers 7.12502
rthumb 19.1847 -7.08336
lclavicle -2.51463e-014 4.37326e-015
lhumerus -40.9802 -4.86741 87.1723
lradius 104.198
lwrist 38.4421
lhand -13.9448 12.2099
lfingers 7.12502
lthumb 12.1824 41.8351
rfemur -0.425343 -8.51445 22.1084
rtibia 74.4359
rfoot 10.3893 -6.86569
rtoes 2.63303
lfemur -23.9023 8.59423 -27.9582
ltibia 38.8803
lfoot -17.7862 6.59386
ltoes 24.5805
48
root -7.76819 16.8403 -7.94229 0.548365 25.1868 -11.2893
lowerback 9.95978 0.418894 -3.9254
upperback 0.505633 0.339149 3.95023
thorax -5.11623 0.31363 6.34569
lowerneck -21.1552 -4.86633 -8.81122
upperneck 14.9777 -6.15888 10.8121
head 8.78607 -2.28153 4.29883
rclavicle -1.31198e-014 2.14687e-014
rhumerus -43.3462 19.493 -84.0436
rradius 105.356
rwrist -31.3667
rhand -7.54904 22.1432
rfingers 7.12502
rthumb 18.3427 -7.01195
lclavicle -1.31198e-014 2.14687e-014
lhumerus -38.9199 -5.28983 87.2758
lradius 104.016
lwrist 39.36
lhand -15.1511 13.0502
lfingers 7.12502
lthumb 11.0191 42.741
rfemur -3.75608 -9.35488 19.6184
rtibia 78.0978
rfoot 9.72565 -6.33895
rtoes 3.03174
lfemur -23.432 8.53789 -29.3536
ltibia 39.4625
lfoot -19.8252 6.93256
ltoes 23.7459
